<?xml version="1.0" encoding="UTF-8" standalone="no"?>
<svg
   xmlns:dc="http://purl.org/dc/elements/1.1/"
   xmlns:cc="http://creativecommons.org/ns#"
   xmlns:rdf="http://www.w3.org/1999/02/22-rdf-syntax-ns#"
   xmlns:svg="http://www.w3.org/2000/svg"
   xmlns="http://www.w3.org/2000/svg"
   id="svg4539"
   version="1.1"
   viewBox="0 0 209.29895 211.58798"
   height="211.58798mm"
   width="209.29895mm">
  <defs
     id="defs4533" />
  <metadata
     id="metadata4536">
    <rdf:RDF>
      <cc:Work
         rdf:about="">
        <dc:format>image/svg+xml</dc:format>
        <dc:type
           rdf:resource="http://purl.org/dc/dcmitype/StillImage" />
        <dc:title></dc:title>
      </cc:Work>
    </rdf:RDF>
  </metadata>
  <g
     transform="translate(-1.1838538,-78.569103)"
     id="layer1">
    <path
       style="fill:#ffffff;stroke-width:0.9049468"
       d="M 1.1838538,111.31527 H 50.115661 v 17.63216 H 1.1838538 Z m 0,-32.746167 H 50.115661 V 96.201272 H 1.1838538 Z M 88.974961,143.80902 H 1.1838538 v 17.63216 H 85.685039 c 9.251671,0 30.838901,0.25142 38.857661,16.12066 v -9.82324 c -3.90636,-15.61783 -15.41944,-23.92958 -35.568561,-23.92958 z m 0.20439,32.74516 H 1.1838538 v 17.63216 H 85.685039 c 20.559531,0 33.512371,1.00767 38.857661,4.5345 v -7.80892 c -4.1124,-12.34241 -21.38202,-14.35774 -35.362527,-14.35774 z m -0.20439,83.12348 H 1.1838538 V 242.0455 H 85.685039 c 9.251671,0 30.838901,-0.25142 38.857661,-16.12067 v 9.82325 c -3.90636,15.61783 -15.41944,23.92958 -35.568561,23.92958 z m 0.20439,-32.74516 H 1.1838538 V 209.30034 H 85.685039 c 20.559531,0 33.512371,-1.00767 38.857661,-4.5345 v 7.80891 c -4.1124,12.34242 -21.38202,14.35775 -35.362527,14.35775 z m 56.745369,63.22458 h 64.55809 v -10.83192 h -62.70792 c -5.55133,0 -18.70855,-0.25142 -23.4374,-9.57183 v 6.046 c 2.26141,9.31941 9.25167,14.35775 21.58723,14.35775 z m -0.20522,-19.89991 h 64.5581 v -10.83093 h -62.50271 c -12.54159,0 -20.35433,-0.50382 -23.43822,-2.77058 v 4.78592 c 2.46662,7.5565 12.95201,8.81559 21.38202,8.81559 z"
       id="path5084" />
  </g>
</svg>
