<?xml version="1.0" encoding="UTF-8" standalone="no"?>
<svg
   xmlns:osb="http://www.openswatchbook.org/uri/2009/osb"
   xmlns:dc="http://purl.org/dc/elements/1.1/"
   xmlns:cc="http://creativecommons.org/ns#"
   xmlns:rdf="http://www.w3.org/1999/02/22-rdf-syntax-ns#"
   xmlns:svg="http://www.w3.org/2000/svg"
   xmlns="http://www.w3.org/2000/svg"
   id="svg8"
   version="1.1"
   viewBox="0 0 38.577907 10.321234"
   height="10.321234mm"
   width="38.577908mm">
  <metadata
     id="metadata5">
    <rdf:RDF>
      <cc:Work
         rdf:about="">
        <dc:format>image/svg+xml</dc:format>
        <dc:type
           rdf:resource="http://purl.org/dc/dcmitype/StillImage" />
        <dc:title></dc:title>
      </cc:Work>
    </rdf:RDF>
  </metadata>
  <g
     transform="translate(-16.781196,-90.097407)"
     id="layer1">
    <g
       id="flowRoot4485"
       style="font-style:normal;font-variant:normal;font-weight:normal;font-stretch:normal;font-size:40px;line-height:1.25;font-family:'Angsana New';-inkscape-font-specification:'Angsana New, Normal';font-variant-ligatures:normal;font-variant-caps:normal;font-variant-numeric:normal;font-feature-settings:normal;text-align:start;letter-spacing:0px;word-spacing:0px;writing-mode:lr-tb;text-anchor:start;fill:#000000;fill-opacity:1;stroke:none;stroke-width:1.00157475;stroke-miterlimit:4;stroke-dasharray:none"
       transform="scale(0.26458333)"
       aria-label="KapSSe">
      <path
         id="path6426"
         style="font-style:normal;font-variant:normal;font-weight:normal;font-stretch:normal;font-size:40px;font-family:sans-serif;-inkscape-font-specification:'sans-serif, Normal';font-variant-ligatures:normal;font-variant-caps:normal;font-variant-numeric:normal;font-feature-settings:normal;text-align:start;writing-mode:lr-tb;text-anchor:start;stroke:none;stroke-width:1.00157475;stroke-miterlimit:4;stroke-dasharray:none;stroke-opacity:1;fill:#000000;fill-opacity:1"
         d="m 63.925781,341.55377 h 3.945313 v 12.32422 l 13.085937,-12.32422 h 5.078125 L 71.5625,355.14752 87.070312,370.71392 H 81.875 L 67.871094,356.67096 v 14.04296 h -3.945313 z" />
      <path
         id="path6428"
         style="font-style:normal;font-variant:normal;font-weight:normal;font-stretch:normal;font-size:40px;font-family:sans-serif;-inkscape-font-specification:'sans-serif, Normal';font-variant-ligatures:normal;font-variant-caps:normal;font-variant-numeric:normal;font-feature-settings:normal;text-align:start;writing-mode:lr-tb;text-anchor:start;stroke:none;stroke-width:1.00157475;stroke-miterlimit:4;stroke-dasharray:none;stroke-opacity:1;fill:#000000;fill-opacity:1"
         d="m 99.257812,359.71783 q -4.355468,0 -6.035156,0.99609 -1.679687,0.9961 -1.679687,3.39844 0,1.91406 1.25,3.04688 1.269531,1.11328 3.4375,1.11328 2.988281,0 4.785161,-2.10938 1.8164,-2.1289 1.8164,-5.64453 v -0.80078 z m 7.167968,-1.48437 v 12.48046 h -3.59375 v -3.32031 q -1.23047,1.99219 -3.066405,2.94922 -1.835938,0.9375 -4.492188,0.9375 -3.359375,0 -5.351562,-1.875 -1.972656,-1.89453 -1.972656,-5.05859 0,-3.69141 2.460937,-5.56641 2.480469,-1.875 7.382813,-1.875 h 5.039061 v -0.35156 q 0,-2.48047 -1.64062,-3.82813 -1.621098,-1.36718 -4.570316,-1.36718 -1.875,0 -3.652344,0.44921 -1.777344,0.44922 -3.417969,1.34766 v -3.32031 q 1.972656,-0.76172 3.828125,-1.13281 1.855469,-0.39063 3.613281,-0.39063 4.746093,0 7.089843,2.46094 2.34375,2.46094 2.34375,7.46094 z" />
      <path
         id="path6430"
         style="font-style:normal;font-variant:normal;font-weight:normal;font-stretch:normal;font-size:40px;font-family:sans-serif;-inkscape-font-specification:'sans-serif, Normal';font-variant-ligatures:normal;font-variant-caps:normal;font-variant-numeric:normal;font-feature-settings:normal;text-align:start;writing-mode:lr-tb;text-anchor:start;stroke:none;stroke-width:1.00157475;stroke-miterlimit:4;stroke-dasharray:none;stroke-opacity:1;fill:#000000;fill-opacity:1"
         d="m 117.32422,367.43267 v 11.60157 h -3.61328 v -30.19532 h 3.61328 v 3.32032 q 1.13281,-1.95313 2.85156,-2.89063 1.73828,-0.95703 4.14063,-0.95703 3.98437,0 6.46484,3.16406 2.5,3.16407 2.5,8.32032 0,5.15625 -2.5,8.32031 -2.48047,3.16406 -6.46484,3.16406 -2.40235,0 -4.14063,-0.9375 -1.71875,-0.95703 -2.85156,-2.91016 z m 12.22656,-7.63671 q 0,-3.96485 -1.64062,-6.21094 -1.6211,-2.26563 -4.47266,-2.26563 -2.85156,0 -4.49219,2.26563 -1.62109,2.24609 -1.62109,6.21094 0,3.96484 1.62109,6.23046 1.64063,2.2461 4.49219,2.2461 2.85156,0 4.47266,-2.2461 1.64062,-2.26562 1.64062,-6.23046 z" />
      <path
         id="path6432"
         style="font-style:normal;font-variant:normal;font-weight:normal;font-stretch:normal;font-size:40px;font-family:sans-serif;-inkscape-font-specification:'sans-serif, Normal';font-variant-ligatures:normal;font-variant-caps:normal;font-variant-numeric:normal;font-feature-settings:normal;text-align:start;writing-mode:lr-tb;text-anchor:start;stroke:none;stroke-width:1.00157475;stroke-miterlimit:4;stroke-dasharray:none;stroke-opacity:1;fill:#000000;fill-opacity:1"
         d="m 156.875,342.5108 v 3.84766 q -2.24609,-1.07422 -4.23828,-1.60157 -1.99219,-0.52734 -3.84766,-0.52734 -3.22265,0 -4.98047,1.25 -1.73828,1.25 -1.73828,3.55469 0,1.93359 1.15235,2.92968 1.17187,0.97657 4.41406,1.58204 l 2.38281,0.48828 q 4.41406,0.83984 6.50391,2.96875 2.10937,2.10937 2.10937,5.66406 0,4.23828 -2.85156,6.42578 -2.83203,2.1875 -8.32031,2.1875 -2.07032,0 -4.41407,-0.46875 -2.32421,-0.46875 -4.82421,-1.38672 v -4.0625 q 2.40234,1.34766 4.70703,2.03125 2.30468,0.6836 4.53125,0.6836 3.3789,0 5.21484,-1.32813 1.83594,-1.32812 1.83594,-3.78906 0,-2.14844 -1.32813,-3.35938 -1.30859,-1.21093 -4.3164,-1.8164 l -2.40235,-0.46875 q -4.41406,-0.87891 -6.38672,-2.75391 -1.97265,-1.875 -1.97265,-5.21484 0,-3.86719 2.71484,-6.09375 2.73438,-2.22657 7.51953,-2.22657 2.05078,0 4.17969,0.3711 2.12891,0.37109 4.35547,1.11328 z" />
      <path
         id="path6434"
         style="font-style:normal;font-variant:normal;font-weight:normal;font-stretch:normal;font-size:40px;font-family:sans-serif;-inkscape-font-specification:'sans-serif, Normal';font-variant-ligatures:normal;font-variant-caps:normal;font-variant-numeric:normal;font-feature-settings:normal;text-align:start;writing-mode:lr-tb;text-anchor:start;stroke:none;stroke-width:1.00157475;stroke-miterlimit:4;stroke-dasharray:none;stroke-opacity:1;fill:#000000;fill-opacity:1"
         d="m 182.26562,342.5108 v 3.84766 q -2.24609,-1.07422 -4.23828,-1.60157 -1.99218,-0.52734 -3.84765,-0.52734 -3.22266,0 -4.98047,1.25 -1.73828,1.25 -1.73828,3.55469 0,1.93359 1.15234,2.92968 1.17188,0.97657 4.41406,1.58204 l 2.38282,0.48828 q 4.41406,0.83984 6.5039,2.96875 2.10938,2.10937 2.10938,5.66406 0,4.23828 -2.85157,6.42578 -2.83203,2.1875 -8.32031,2.1875 -2.07031,0 -4.41406,-0.46875 -2.32422,-0.46875 -4.82422,-1.38672 v -4.0625 q 2.40234,1.34766 4.70703,2.03125 2.30469,0.6836 4.53125,0.6836 3.37891,0 5.21485,-1.32813 1.83593,-1.32812 1.83593,-3.78906 0,-2.14844 -1.32812,-3.35938 -1.3086,-1.21093 -4.31641,-1.8164 l -2.40234,-0.46875 q -4.41406,-0.87891 -6.38672,-2.75391 -1.97266,-1.875 -1.97266,-5.21484 0,-3.86719 2.71485,-6.09375 2.73437,-2.22657 7.51953,-2.22657 2.05078,0 4.17969,0.3711 2.1289,0.37109 4.35546,1.11328 z" />
      <path
         id="path6436"
         style="font-style:normal;font-variant:normal;font-weight:normal;font-stretch:normal;font-size:40px;font-family:sans-serif;-inkscape-font-specification:'sans-serif, Normal';font-variant-ligatures:normal;font-variant-caps:normal;font-variant-numeric:normal;font-feature-settings:normal;text-align:start;writing-mode:lr-tb;text-anchor:start;stroke:none;stroke-width:1.00157475;stroke-miterlimit:4;stroke-dasharray:none;stroke-opacity:1;fill:#000000;fill-opacity:1"
         d="m 208.73047,358.87799 v 1.75781 h -16.52344 q 0.23438,3.71094 2.22656,5.66406 2.01172,1.9336 5.58594,1.9336 2.07031,0 4.00391,-0.50782 1.95312,-0.50781 3.86718,-1.52343 v 3.39843 q -1.93359,0.82032 -3.96484,1.25 -2.03125,0.42969 -4.12109,0.42969 -5.23438,0 -8.30078,-3.04687 -3.04688,-3.04688 -3.04688,-8.24219 0,-5.3711 2.89063,-8.51563 2.91015,-3.16406 7.83203,-3.16406 4.41406,0 6.97265,2.85156 2.57813,2.83203 2.57813,7.71485 z m -3.59375,-1.05469 q -0.0391,-2.94922 -1.66016,-4.70703 -1.60156,-1.75781 -4.25781,-1.75781 -3.00781,0 -4.82422,1.69921 -1.79687,1.69922 -2.07031,4.78516 z" />
    </g>
  </g>
</svg>
